<?xml version="1.0" encoding="utf-8"?>
<!-- Generator: Adobe Illustrator 25.4.1, SVG Export Plug-In . SVG Version: 6.00 Build 0)  -->
<svg version="1.1" id="Capa_1" xmlns="http://www.w3.org/2000/svg" xmlns:xlink="http://www.w3.org/1999/xlink" x="0px" y="0px"
	 viewBox="0 0 682.62 314.37" style="enable-background:new 0 0 682.62 314.37;" xml:space="preserve">
<style type="text/css">
	.st0{fill:#C4163E;}
	.st1{fill:#706F6F;}
	.st2{fill:#F7F6F7;}
	.st3{fill:#F8F7F8;}
	.st4{fill:#F9F9FA;}
	.st5{fill:#F8F8F8;}
	.st6{fill:#F5F4F5;}
	.st7{fill:#FFFFFF;}
	.st8{fill:#FCFDFA;}
	.st9{fill:#FCFDF9;}
	.st10{fill:#C51642;}
	.st11{fill:#BF182F;}
	.st12{fill:#F9E9ED;}
	.st13{fill:#C11737;}
	.st14{fill:#C11735;}
	.st15{fill:#C51641;}
	.st16{fill:#C11836;}
	.st17{fill:#C01832;}
	.st18{fill:#C51542;}
	.st19{fill:#C21938;}
	.st20{fill:#C31A3B;}
</style>
<path class="st0" d="M159.78,313.29c-67.54,0-127.96-42.24-149.94-104.8C-13.91,140.9,11.84,66.07,72.33,27
	C99.86,9.22,130.07,0.8,162.8,1.16c68.72,0.74,129.93,46.78,149.51,112.47c18.61,62.48-4.66,130.39-57.97,169.01
	c-25.68,18.6-54.38,28.72-86.05,30.43c-1.42,0.08-2.83,0.18-4.25,0.22C162.62,313.32,161.2,313.29,159.78,313.29z"/>
<path class="st1" d="M635.43,180.13c-9.47-0.19-18.94-0.44-28.41-0.51c-1.98-0.01-2.46-0.51-2.46-2.48
	c-0.03-10.21-0.2-20.43-0.41-30.64c-0.03-1.55,0.34-2,1.95-1.98c24.25,0.2,48.5,0.36,72.75,0.43c2.24,0.01,2.9,0.52,2.9,2.88
	c-0.09,30.12-0.08,60.25-0.01,90.37c0,1.91-0.42,2.51-2.4,2.54c-12.76,0.19-25.51,0.5-38.27,0.84c-1.41,0.04-1.57-0.49-1.56-1.66
	c0.05-4.92,0.02-9.84,0.02-15.43c-0.53,1.03-0.79,1.54-1.05,2.05c-0.01,0.23-0.11,0.4-0.32,0.5c-6.88,9.71-16.74,14.44-28.06,16.62
	c-13.02,2.51-25.95,2.47-38.56-2.13c-20.17-7.36-33.35-21.82-41.26-41.37c-6.2-15.32-7.85-31.39-6.99-47.77
	c0.57-10.88,1.89-21.62,5.74-31.93c7.79-20.86,22.41-34.95,43.25-42.17c24.85-8.6,49.9-7.93,74.32,1.66
	c18.69,7.34,30.32,21.22,34.25,41.17c0.62,3.16,0.81,6.34,0.92,9.55c0.04,1.12-0.28,1.54-1.49,1.53c-16.42-0.04-32.83-0.04-49.25,0
	c-1.2,0-1.46-0.41-1.58-1.48c-0.2-1.69-0.48-3.39-0.96-5.03c-2.69-9.34-9.15-14.12-19.54-14.56c-15.7-0.67-26.07,7.19-30.78,23.54
	c-2.96,10.27-3.5,20.81-2.94,31.44c0.43,8.22,1.7,16.29,5.19,23.83c4.13,8.92,10.56,15.24,20.53,17.23
	c11.81,2.36,28.65-3.29,33.33-17.14c0.64-1.9,1.31-3.8,1.2-5.86C635.84,182.83,635.73,181.48,635.43,180.13z"/>
<path class="st1" d="M446.53,202.43c0.3,1.5,1.48,0.66,2.15,0.66c20,0.06,40,0.05,59.99,0.05c2.31,0,4.63,0.07,6.94-0.03
	c1.31-0.05,1.8,0.23,1.79,1.69c-0.06,12.38-0.06,24.75,0,37.13c0.01,1.44-0.46,1.69-1.78,1.69c-39.7-0.03-79.39-0.04-119.09,0.02
	c-1.91,0-1.74-0.94-1.73-2.18c0.02-22.59,0.01-45.18,0.01-67.78c0-30.5,0.02-60.99-0.05-91.49c0-2.04,0.52-2.54,2.54-2.52
	c15.67,0.09,31.34,0.08,47.01,0.01c1.76-0.01,2.19,0.45,2.18,2.19c-0.05,39.22-0.04,78.44-0.04,117.66c0,0.82,0.05,1.64,0.08,2.45
	c0.12,0.1,0.16,0.2,0.12,0.3C446.61,202.38,446.57,202.43,446.53,202.43z"/>
<path class="st2" d="M394.01,80.41c0,54.2,0,108.39,0,162.59c-0.07,0-0.15,0-0.22,0c0-54.22,0-108.45,0-162.67
	C393.86,80.35,393.93,80.38,394.01,80.41z"/>
<path class="st3" d="M682.85,145.74c0,31.37,0,62.75,0,94.12c-0.07,0-0.15,0-0.22,0c0-31.4,0-62.81,0-94.21
	C682.7,145.68,682.77,145.71,682.85,145.74z"/>
<ellipse class="st3" cx="481.64" cy="202.2" rx="49.66" ry="0.32"/>
<path class="st4" d="M395.56,78.54c16.77,0,33.54,0,50.31,0c0,0.07,0,0.15,0,0.22c-16.8,0-33.6,0-50.4,0
	C395.5,78.69,395.53,78.61,395.56,78.54z"/>
<path class="st3" d="M680.97,144.19c-14.38,0-28.76,0-43.14,0c0-0.07,0-0.15,0-0.22c14.41,0,28.82,0,43.23,0
	C681.03,144.04,681,144.12,680.97,144.19z"/>
<path class="st2" d="M518.5,203.91c0,13.03,0,26.06,0,39.09c-0.07,0-0.15,0-0.22,0c0-13.06,0-26.12,0-39.17
	C518.35,203.86,518.42,203.88,518.5,203.91z"/>
<path class="st3" d="M635.43,180.13c0.81,1.34,0.43,2.7,0.05,4.06c-0.13-3.23-0.13-3.23-3.48-3.23c-4.96,0-9.93,0-14.89-0.45
	c5.25,0,10.5,0.01,15.75-0.01C633.71,180.48,634.65,180.79,635.43,180.13z"/>
<ellipse class="st5" cx="603.44" cy="152.93" rx="0.13" ry="10.97"/>
<path class="st6" d="M638.14,227.04c0.11-0.17,0.21-0.33,0.32-0.5c0.53,0.31,0.56,0.82,0.56,1.36c0,4.29,0,8.57-0.45,12.87
	c0-3.73,0.02-7.46-0.02-11.19C638.55,228.73,638.89,227.78,638.14,227.04z"/>
<ellipse class="st2" cx="593.83" cy="246.07" rx="6.89" ry="0.14"/>
<path class="st7" d="M292.02,168.04c-0.55,10.73-2.7,21.18-6.47,31.18c-17.98,47.63-52.1,77.11-102.06,86.2
	c-46.54,8.47-87.25-5.09-120.39-38.98c-22.68-23.2-34.57-51.55-35.85-84.04c-2.35-59.54,36.53-113.26,93.81-130.04
	c13.64-4,27.54-5.85,41.74-5.7c1.92,0.02,2.83,0.44,2.64,2.61c-0.21,2.37-0.19,4.78-0.01,7.15c0.16,2.07-0.33,2.77-2.61,2.71
	c-11.31-0.31-22.54,0.53-33.49,3.53c-27.8,7.6-50.71,22.62-67.64,46.01C45.13,111.5,37.6,137.15,39.7,165.45
	c2.64,35.59,18.76,64,46.8,85.51c23.82,18.27,51.13,26.1,81.14,24.29c0.44-0.03,0.87-0.17,1.31-0.25c0.36-0.46,0.77-0.34,1.18-0.08
	c10.61-0.36,20.81-2.76,30.74-6.39c23.18-8.48,42.41-22.42,56.91-42.4c12.34-17,20.15-35.93,21.99-57.06
	c0.08-0.96,0.05-1.93,0.07-2.9c-0.37-1.04-0.24-2.01,0.34-2.94c3.51-1.49,7.16-0.73,10.77-0.68c0.87,0.01,1.31,0.59,1.24,1.51
	C292.08,165.38,292.37,166.72,292.02,168.04z"/>
<path class="st8" d="M166.01,87.01c0.06,3.09,0.16,6.17,0.16,9.26c0.01,38.63,0,77.25,0,115.88c0.61,0.66,1.4,0.33,2.1,0.34
	c8.72,0.02,17.43,0.01,26.15,0.02c2.37,0,2.38,0.01,2.38,2.45c0,2.68-0.05,5.36,0.02,8.04c0.04,1.35-0.54,1.91-1.81,1.96
	c-0.37,0.01-0.74,0.03-1.12,0.03c-12.81,0.01-25.63,0.01-38.44-0.01c-0.96,0-1.95,0.11-2.79-0.55c-0.7-0.82-0.59-1.82-0.59-2.77
	c-0.01-43.96-0.01-87.92,0-131.89c0-0.96-0.12-1.96,0.62-2.76l0.04-0.03c0.7-0.59,1.54-0.43,2.33-0.44c2.88-0.02,5.75-0.02,8.63,0
	C164.49,86.55,165.34,86.36,166.01,87.01z"/>
<path class="st8" d="M128.58,106.96c-0.01,10.89-8.78,19.61-19.65,19.54c-10.8-0.07-19.44-8.75-19.44-19.53
	c0-10.86,8.79-19.6,19.66-19.56C119.9,87.46,128.59,96.2,128.58,106.96z"/>
<path class="st9" d="M292.02,168.04c-0.19-4.99-0.19-4.99-5.24-4.99c-2.19,0-4.39-0.14-6.53,0.46c-0.14,0.18-0.24,0.15-0.31-0.05
	c-0.68-0.71-1.55-0.33-2.32-0.33c-25.75-0.02-51.5-0.04-77.24,0.03c-1.97,0.01-2.58-0.45-2.45-2.45c0.19-2.75,0.13-5.52,0.01-8.27
	c-0.07-1.53,0.33-2.09,1.95-2.02c3.05,0.13,6.12,0.04,9.18,0.04c27.02,0,54.03,0.03,81.05-0.05c2.04-0.01,2.5,0.57,2.4,2.48
	C292.24,157.92,292.87,163,292.02,168.04z"/>
<path class="st10" d="M151.79,224.35c-0.73-0.66-0.43-1.54-0.43-2.32c-0.01-44.24-0.01-88.49,0-132.73c0-0.78-0.3-1.66,0.43-2.32
	c0.63,0.78,0.44,1.71,0.45,2.58c0.01,44.07,0.01,88.15,0,132.22C152.23,222.65,152.48,223.59,151.79,224.35z"/>
<path class="st11" d="M151.79,224.35c0-45.79,0-91.58,0-137.37c0.17,0.02,0.33,0.04,0.5,0.05c0.22,0.42,0.17,0.87,0.17,1.31
	c-0.01,45.21,0.03,90.43-0.02,135.64c-0.08,0.36-0.29,0.48-0.63,0.36L151.79,224.35z"/>
<path class="st12" d="M152.28,224.31c0.02-4.4,0.07-8.79,0.07-13.19c0.01-40.84,0-81.69,0-122.53c0-0.52-0.04-1.04-0.06-1.56
	c0.13-0.05,0.26-0.06,0.4-0.02c0.01,19.74,0.03,39.48,0.03,59.23c0.01,25.03,0,50.06,0,75.1c0,0.97,0.04,1.94,0.06,2.9
	c-0.03,0.08-0.06,0.15-0.09,0.23C152.52,224.52,152.38,224.46,152.28,224.31z"/>
<path class="st13" d="M166.96,87.13c0,41.37,0,82.73,0,124.1c-0.07,0-0.14,0-0.22,0c0-41.4,0-82.79,0-124.19
	C166.82,87.07,166.89,87.1,166.96,87.13z"/>
<path class="st14" d="M292.41,149.63c-0.67,0.71-1.54,0.42-2.33,0.42c-29.95,0.02-59.89,0.02-89.84,0c-0.78,0-1.66,0.29-2.33-0.42
	c0.7-0.4,1.46-0.21,2.19-0.21c30.04-0.01,60.07-0.01,90.11,0C290.95,149.42,291.71,149.23,292.41,149.63z"/>
<path class="st15" d="M292.41,149.63c-31.5,0-62.99,0-94.49,0c0.66-0.74,1.54-0.44,2.32-0.44c29.95-0.01,59.9-0.01,89.85,0
	C290.88,149.19,291.75,148.89,292.41,149.63z"/>
<path class="st12" d="M152.79,224.24c14.09,0.03,28.17,0.04,42.26,0.1c1.18,0,1.56-0.46,1.54-1.59c-0.05-2.68-0.1-5.37,0.02-8.04
	c0.07-1.59-0.51-2.02-2.05-2.01c-8.65,0.06-17.29,0.04-25.94,0.01c-0.82,0-1.82,0.44-2.45-0.55c9.38,0.04,18.77,0.18,28.15,0.06
	c2.35-0.03,2.89,0.65,2.74,2.84c-0.21,3.19-0.1,6.4-0.12,9.6c-0.59,0.82-1.47,0.59-2.26,0.59c-13.26,0.02-26.51,0.02-39.77-0.01
	c-0.79,0-1.86,0.41-2.23-0.84L152.79,224.24z"/>
<path class="st16" d="M279.94,163.46c0.11,0.01,0.21,0.03,0.31,0.05c-0.14,0.88-0.27,1.76-0.41,2.65c-0.27-2.06-1.55-2.27-3.39-2.26
	c-25.21,0.06-50.41,0.04-75.62,0.04c-0.81,0-1.61,0-2.83,0c1.15-0.65,1.97-0.42,2.74-0.42c25.36-0.02,50.71-0.01,76.07-0.01
	C277.85,163.51,278.89,163.48,279.94,163.46z"/>
<path class="st17" d="M152.67,224.39c0.34,0.41,0.81,0.29,1.24,0.29c14.34-0.01,28.68-0.02,43.02-0.03c0.03,0.2,0.06,0.4,0.09,0.6
	c-0.54,0.36-1.16,0.22-1.74,0.22c-13.62,0.01-27.23,0.01-40.85,0c-0.58,0-1.2,0.14-1.74-0.21c-0.42-0.18-0.73-0.46-0.88-0.9
	c0.16-0.01,0.31-0.02,0.47-0.03C152.4,224.38,152.53,224.41,152.67,224.39z"/>
<path class="st18" d="M152.7,225.25c14.78,0,29.56,0,44.33-0.01c-0.58,0.69-1.38,0.44-2.09,0.44c-13.39,0.01-26.77,0.01-40.16,0
	C154.07,225.68,153.28,225.93,152.7,225.25z"/>
<path class="st19" d="M293.21,151.04c0,4.44,0,8.87,0,13.31c-0.07,0-0.15,0-0.22,0c0-4.42,0-8.84,0-13.26
	C293.06,151.08,293.13,151.06,293.21,151.04z"/>
<path class="st17" d="M152.82,86.6c-0.18-0.19-0.18-0.48,0.06-0.48c4.17-0.02,8.33-0.01,12.5,0.03c0.22,0,0.43,0.33,0.65,0.51
	C161.62,86.78,157.22,86.88,152.82,86.6z"/>
<path class="st12" d="M152.82,86.6c4.4,0.02,8.8,0.04,13.2,0.06c0,0.12,0,0.24-0.02,0.36c-4.43-0.01-8.85-0.02-13.28-0.03
	C152.73,86.84,152.76,86.72,152.82,86.6z"/>
<ellipse class="st17" cx="165.9" cy="33.1" rx="0.13" ry="7.83"/>
<path class="st20" d="M106.6,126.93c1.6,0,3.2,0,4.8,0c0,0.06,0,0.12,0,0.18c-1.6,0-3.2,0-4.79,0
	C106.6,127.05,106.6,126.99,106.6,126.93z"/>
<path class="st17" d="M170.13,274.91c-0.39,0.03-0.79,0.06-1.18,0.08c-0.94-0.06-1.88-0.13-2.82-0.19
	C167.48,274.55,168.84,274.09,170.13,274.91z"/>
</svg>
